{"glyphs":{"0":{"ha":814,"x_min":79,"x_max":735,"o":"m 407 -14 q 79 475 79 -14 q 407 977 79 977 q 735 475 735 977 q 407 -14 735 -14 m 407 111 q 590 475 590 111 q 407 852 590 852 q 224 475 224 852 q 407 111 224 111 m 412 373 q 362 387 385 373 q 326 424 339 400 q 312 475 312 447 q 326 525 312 502 q 362 562 339 548 q 412 575 385 575 q 464 562 440 575 q 500 525 487 548 q 514 475 514 502 q 500 424 514 447 q 464 387 487 400 q 412 373 440 373 z "},"1":{"ha":814,"x_min":115,"x_max":713,"o":"m 499 126 l 713 126 l 713 0 l 115 0 l 115 126 l 355 126 l 355 830 l 129 779 l 129 909 l 355 963 l 499 963 l 499 126 z "},"2":{"ha":814,"x_min":102,"x_max":743,"o":"m 743 126 l 743 0 l 117 0 l 117 152 q 447 406 337 273 q 557 680 557 538 q 389 852 557 852 q 284 818 321 852 q 247 720 247 783 l 102 720 q 137 859 102 801 q 238 946 172 916 q 399 977 305 977 q 627 904 551 977 q 703 686 703 832 q 610 405 703 539 q 328 146 517 270 l 328 126 l 743 126 z "},"3":{"ha":814,"x_min":83,"x_max":742,"o":"m 514 515 q 634 469 583 503 q 714 381 686 435 q 742 258 742 328 q 703 111 742 172 q 589 18 664 50 q 410 -14 515 -14 q 83 270 83 -14 l 228 270 q 404 111 228 111 q 546 153 496 111 q 597 271 597 195 q 521 401 597 355 q 307 448 445 448 l 285 448 l 269 536 q 496 604 422 555 q 570 727 570 653 q 528 819 570 786 q 411 852 487 852 q 291 818 333 852 q 248 720 248 783 l 103 720 q 141 859 103 801 q 252 946 179 916 q 426 977 324 977 q 640 921 564 977 q 715 761 715 865 q 690 658 715 705 q 619 578 665 611 q 514 529 574 545 l 514 515 z "},"4":{"ha":814,"x_min":49,"x_max":760,"o":"m 760 335 l 760 216 l 669 216 l 669 0 l 532 0 l 532 216 l 49 216 l 51 218 l 186 909 l 324 909 l 211 335 l 532 335 l 532 963 l 669 963 l 669 335 l 760 335 z "},"5":{"ha":814,"x_min":90,"x_max":742,"o":"m 442 628 q 667 548 592 628 q 742 311 742 467 q 702 135 742 208 q 587 24 663 62 q 403 -14 511 -14 q 233 20 304 -14 q 126 117 163 53 q 90 270 90 180 l 235 270 q 279 153 235 195 q 404 111 323 111 q 547 163 496 111 q 597 311 597 216 q 395 506 597 506 q 224 461 303 506 l 148 461 l 161 963 l 681 963 l 681 837 l 297 837 l 283 600 q 442 628 351 628 z "},"6":{"ha":814,"x_min":80,"x_max":735,"o":"m 472 610 q 667 532 598 610 q 735 312 735 454 q 698 136 735 210 q 590 25 661 63 q 419 -14 519 -14 q 235 30 311 -14 q 120 156 159 73 q 80 357 80 239 l 80 389 q 220 809 80 665 q 647 967 361 953 l 661 838 q 338 733 444 829 q 231 453 231 637 l 243 453 q 323 569 263 528 q 472 610 384 610 m 420 111 q 546 164 502 111 q 590 312 590 216 q 544 440 590 395 q 411 486 497 486 q 278 437 325 486 q 231 298 231 388 q 420 111 231 111 z "},"7":{"ha":814,"x_min":76,"x_max":783,"o":"m 783 963 l 452 0 l 293 0 l 578 830 l 218 830 l 218 625 l 76 625 l 76 963 l 783 963 z "},"8":{"ha":814,"x_min":79,"x_max":735,"o":"m 521 507 q 680 424 625 486 q 735 264 735 361 q 696 115 735 177 q 584 19 658 52 q 407 -14 511 -14 q 230 19 303 -14 q 117 115 156 52 q 79 264 79 177 q 135 424 79 361 q 294 507 191 486 l 294 517 q 154 593 203 538 q 106 732 106 648 q 141 864 106 809 q 244 948 176 919 q 407 977 312 977 q 570 948 502 977 q 673 864 637 919 q 708 732 708 809 q 660 594 708 649 q 521 517 611 538 l 521 507 m 251 705 q 292 608 251 643 q 407 574 333 574 q 522 608 481 574 q 563 705 563 643 q 522 813 563 775 q 407 852 481 852 q 292 813 332 852 q 251 705 251 775 m 407 111 q 542 153 494 111 q 590 271 590 195 q 542 398 590 353 q 407 444 494 444 q 272 398 319 444 q 224 271 224 353 q 272 153 224 195 q 407 111 319 111 z "},"9":{"ha":814,"x_min":80,"x_max":735,"o":"m 396 977 q 580 933 504 977 q 695 807 656 890 q 735 606 735 724 l 735 574 q 595 154 735 298 q 168 -4 454 10 l 155 125 q 477 230 371 134 q 585 510 584 326 l 572 510 q 492 394 552 435 q 343 353 431 353 q 149 431 217 353 q 80 651 80 509 q 117 827 80 753 q 225 938 154 900 q 396 977 296 977 m 404 477 q 537 526 490 477 q 585 665 585 575 q 395 852 585 852 q 269 799 313 852 q 225 651 225 747 q 272 523 225 568 q 404 477 318 477 z "}," ":{"ha":814,"x_min":0,"x_max":0,"o":""},"A":{"ha":814,"x_min":28,"x_max":781,"o":"m 576 235 l 234 235 l 171 0 l 28 0 l 307 963 l 503 963 l 781 0 l 639 0 l 576 235 m 541 363 l 411 846 l 399 846 l 269 363 l 541 363 z "},"B":{"ha":814,"x_min":109,"x_max":769,"o":"m 471 506 q 691 443 614 504 q 769 271 769 382 q 735 125 769 186 q 635 32 701 64 q 477 0 570 0 l 109 0 l 109 963 l 395 963 q 621 899 541 963 q 701 719 701 836 q 642 578 701 631 q 471 514 582 526 l 471 506 m 244 834 l 244 573 l 370 573 q 509 608 460 573 q 559 705 559 642 q 507 801 559 767 q 361 834 456 834 l 244 834 m 438 129 q 577 170 528 129 q 627 285 627 211 q 575 402 627 361 q 429 444 523 444 l 244 444 l 244 129 l 438 129 z "},"C":{"ha":814,"x_min":65,"x_max":762,"o":"m 514 -14 q 65 483 65 -14 q 114 750 65 639 q 257 919 163 861 q 484 977 351 977 q 671 933 583 977 q 760 747 760 889 l 627 747 q 486 853 627 853 q 340 810 402 853 q 244 686 278 768 q 210 490 210 604 q 292 206 210 300 q 537 111 374 111 q 731 152 635 111 l 762 33 q 514 -14 644 -14 z "},"D":{"ha":814,"x_min":109,"x_max":783,"o":"m 342 963 q 673 836 563 963 q 783 454 783 709 q 673 113 783 227 q 342 0 563 0 l 109 0 l 109 963 l 342 963 m 342 129 q 565 214 490 129 q 640 468 640 298 q 342 834 640 834 l 244 834 l 244 129 l 342 129 z "},"E":{"ha":814,"x_min":109,"x_max":746,"o":"m 244 834 l 244 547 l 624 547 l 624 418 l 244 418 l 244 129 l 746 129 l 746 0 l 109 0 l 109 963 l 746 963 l 746 834 l 244 834 z "},"F":{"ha":814,"x_min":109,"x_max":746,"o":"m 244 834 l 244 506 l 624 506 l 624 377 l 244 377 l 244 0 l 109 0 l 109 963 l 746 963 l 746 834 l 244 834 z "},"G":{"ha":814,"x_min":65,"x_max":760,"o":"m 760 27 q 645 -1 714 12 q 496 -14 576 -14 q 65 483 65 -14 q 114 750 65 639 q 258 919 163 861 q 484 977 352 977 q 760 747 760 977 l 627 747 q 588 826 627 800 q 472 852 549 852 q 331 809 389 852 q 241 686 272 767 q 210 490 210 604 q 286 206 210 300 q 513 111 362 111 q 631 125 569 111 l 631 353 l 434 353 l 434 481 l 760 481 l 760 27 z "},"H":{"ha":814,"x_min":95,"x_max":718,"o":"m 718 963 l 718 0 l 582 0 l 582 415 l 231 415 l 231 0 l 95 0 l 95 963 l 231 963 l 231 544 l 582 544 l 582 963 l 718 963 z "},"I":{"ha":814,"x_min":114,"x_max":700,"o":"m 474 834 l 474 129 l 700 129 l 700 0 l 114 0 l 114 129 l 338 129 l 338 834 l 114 834 l 114 963 l 700 963 l 700 834 l 474 834 z "},"J":{"ha":814,"x_min":65,"x_max":727,"o":"m 727 309 q 688 142 727 212 q 574 36 648 73 q 396 0 499 0 q 217 40 291 0 q 104 155 142 79 q 65 336 65 231 l 201 336 q 253 178 201 235 q 399 122 304 122 q 542 171 492 122 q 591 309 591 220 l 591 834 l 339 834 l 339 963 l 727 963 l 727 309 z "},"K":{"ha":814,"x_min":109,"x_max":795,"o":"m 427 391 q 244 342 342 351 l 244 0 l 109 0 l 109 963 l 244 963 l 244 469 q 447 550 365 479 q 569 730 529 621 q 609 963 609 838 l 749 963 q 696 687 749 817 q 545 470 643 557 l 795 0 l 631 0 l 427 391 z "},"L":{"ha":814,"x_min":109,"x_max":746,"o":"m 746 129 l 746 0 l 109 0 l 109 963 l 244 963 l 244 129 l 746 129 z "},"M":{"ha":814,"x_min":87,"x_max":727,"o":"m 727 963 l 727 0 l 597 0 l 597 792 l 579 792 l 476 393 l 338 393 l 235 792 l 217 792 l 217 0 l 87 0 l 87 963 l 298 963 l 401 549 l 412 549 l 515 963 l 727 963 z "},"N":{"ha":814,"x_min":100,"x_max":713,"o":"m 583 963 l 713 963 l 713 0 l 543 0 l 244 712 l 231 712 l 231 0 l 100 0 l 100 963 l 271 963 l 570 218 l 583 218 l 583 963 z "},"O":{"ha":814,"x_min":52,"x_max":762,"o":"m 407 -14 q 52 475 52 -14 q 407 977 52 977 q 762 475 762 977 q 407 -14 762 -14 m 407 111 q 620 475 620 111 q 407 852 620 852 q 194 475 194 852 q 407 111 194 111 z "},"P":{"ha":814,"x_min":109,"x_max":760,"o":"m 392 963 q 591 925 508 963 q 716 814 673 887 q 760 637 760 741 q 716 454 760 530 q 591 338 673 378 q 392 298 508 298 l 244 298 l 244 0 l 109 0 l 109 963 l 392 963 m 392 427 q 558 479 499 427 q 617 624 617 530 q 558 779 617 724 q 392 834 499 834 l 244 834 l 244 427 l 392 427 z "},"Q":{"ha":814,"x_min":52,"x_max":762,"o":"m 471 -15 q 631 -190 471 -190 l 700 -190 l 686 -312 l 631 -312 q 336 -14 336 -312 l 336 -8 q 52 475 52 38 q 407 977 52 977 q 762 475 762 977 q 471 -9 762 33 l 471 -15 m 194 475 q 407 111 194 111 q 620 475 620 111 q 407 852 620 852 q 194 475 194 852 z "},"R":{"ha":814,"x_min":94,"x_max":774,"o":"m 610 0 l 436 366 l 426 366 l 229 366 l 229 0 l 94 0 l 94 963 l 426 963 q 595 929 525 963 q 703 829 666 895 q 739 671 739 764 q 697 497 739 568 q 576 393 655 426 l 774 0 l 610 0 m 229 495 l 426 495 q 552 538 507 495 q 597 658 597 581 q 552 788 597 742 q 426 834 507 834 l 229 834 l 229 495 z "},"S":{"ha":814,"x_min":84,"x_max":713,"o":"m 495 524 q 660 407 606 471 q 713 248 713 343 q 628 47 713 114 q 370 -20 543 -20 q 84 33 206 -20 l 102 164 q 381 104 252 104 q 522 139 475 104 q 568 245 568 174 q 480 372 568 332 l 313 448 q 161 557 212 494 q 110 712 110 621 q 146 855 110 795 q 250 945 182 914 q 415 977 319 977 q 564 949 502 977 q 658 871 626 922 q 690 747 690 820 l 557 747 q 520 825 557 798 q 415 852 483 852 q 297 817 339 852 q 255 719 255 782 q 279 644 255 673 q 354 590 303 614 l 495 524 z "},"T":{"ha":814,"x_min":54,"x_max":760,"o":"m 760 834 l 475 834 l 475 0 l 339 0 l 339 834 l 54 834 l 54 963 l 760 963 l 760 834 z "},"U":{"ha":814,"x_min":95,"x_max":719,"o":"m 404 0 q 95 323 95 0 l 95 963 l 231 963 l 231 323 q 273 177 231 225 q 407 129 316 129 q 539 178 494 129 q 583 323 583 227 l 583 963 l 719 963 l 719 323 q 639 81 719 162 q 404 0 559 0 z "},"V":{"ha":814,"x_min":30,"x_max":783,"o":"m 30 963 l 175 963 l 400 102 l 412 102 l 637 963 l 783 963 l 511 -14 l 301 -14 l 30 963 z "},"W":{"ha":814,"x_min":14,"x_max":800,"o":"m 671 963 l 800 963 l 705 -14 l 486 -14 l 411 544 l 403 544 l 328 -14 l 109 -14 l 14 963 l 142 963 l 224 95 l 237 95 l 336 678 l 479 678 l 576 95 l 590 95 l 671 963 z "},"X":{"ha":814,"x_min":45,"x_max":770,"o":"m 770 963 l 475 477 l 770 0 l 614 0 l 408 361 l 201 0 l 45 0 l 340 477 l 45 963 l 201 963 l 408 594 l 614 963 l 770 963 z "},"Y":{"ha":814,"x_min":18,"x_max":798,"o":"m 477 344 l 477 0 l 341 0 l 341 338 l 18 963 l 167 963 l 401 481 l 414 481 l 648 963 l 798 963 l 477 344 z "},"Z":{"ha":814,"x_min":102,"x_max":726,"o":"m 726 119 l 726 0 l 102 0 l 102 119 l 547 834 l 102 834 l 102 963 l 712 963 l 712 834 l 254 119 l 726 119 z "},"a":{"ha":814,"x_min":65,"x_max":785,"o":"m 785 115 l 785 0 l 555 -7 l 548 152 l 534 152 q 465 28 526 71 q 301 -14 404 -14 q 127 40 189 -14 q 65 194 65 94 q 148 369 65 308 q 384 430 231 430 q 526 413 467 430 l 526 452 q 476 561 526 525 q 326 602 427 597 l 153 610 l 167 732 l 312 727 q 576 646 490 720 q 663 430 663 572 l 663 130 l 785 115 m 324 102 q 434 124 388 102 q 503 182 479 146 q 526 258 526 218 l 526 301 q 459 312 492 310 q 374 315 425 315 q 245 288 289 315 q 201 208 201 260 q 232 129 201 155 q 324 102 263 102 z "},"b":{"ha":814,"x_min":114,"x_max":749,"o":"m 448 732 q 610 689 543 732 q 713 564 678 646 q 749 366 749 482 q 702 161 749 246 q 567 31 656 76 q 354 -14 479 -14 q 114 0 250 -14 l 114 1017 l 258 1017 l 258 589 l 271 589 q 448 732 281 732 m 382 109 q 548 176 490 109 q 606 366 606 243 q 563 547 606 484 q 441 610 520 610 q 258 404 258 610 l 258 113 q 382 109 298 109 z "},"c":{"ha":814,"x_min":92,"x_max":722,"o":"m 463 -14 q 262 30 345 -14 q 136 157 179 73 q 92 361 92 241 q 132 562 92 478 q 250 689 172 645 q 437 732 327 732 q 555 719 495 732 q 668 649 615 705 q 722 476 722 592 l 574 476 q 538 570 574 536 q 438 604 502 604 q 293 542 345 604 q 241 368 241 480 q 303 180 241 245 q 479 115 364 115 q 690 133 581 115 l 707 7 q 463 -14 608 -14 z "},"d":{"ha":814,"x_min":65,"x_max":700,"o":"m 700 1017 l 700 0 l 571 -7 l 559 111 l 543 111 q 485 18 536 50 q 351 -14 434 -14 q 196 29 260 -14 q 99 153 132 71 q 65 353 65 235 q 99 558 65 473 q 197 688 132 644 q 353 732 262 732 q 486 697 439 732 q 543 589 533 661 l 556 589 l 556 1017 l 700 1017 m 374 109 q 556 231 556 109 l 556 404 q 373 610 556 610 q 251 543 294 610 q 208 353 208 476 q 250 170 208 232 q 374 109 292 109 z "},"e":{"ha":814,"x_min":92,"x_max":722,"o":"m 722 388 q 718 296 722 338 l 232 296 q 317 159 251 206 q 492 113 384 113 q 669 132 576 113 l 686 5 q 476 -14 587 -14 q 268 30 353 -14 q 137 157 182 73 q 92 361 92 241 q 130 561 92 477 q 241 688 168 644 q 416 732 314 732 q 642 644 563 732 q 722 388 722 555 m 591 406 q 546 554 591 502 q 418 606 500 606 q 285 554 334 606 q 227 406 235 502 l 591 406 z "},"f":{"ha":814,"x_min":46,"x_max":762,"o":"m 609 902 q 416 665 416 902 l 416 556 l 711 556 l 711 437 l 416 437 l 416 0 l 273 0 l 273 437 l 46 437 l 46 556 l 273 556 l 273 658 q 357 938 273 845 q 613 1031 442 1031 q 762 1017 690 1031 l 747 892 q 609 902 667 902 z "},"g":{"ha":814,"x_min":65,"x_max":700,"o":"m 700 719 l 700 64 q 662 -147 700 -65 q 543 -271 623 -229 q 334 -317 462 -313 l 123 -324 l 117 -197 l 347 -186 q 505 -125 455 -181 q 555 42 555 -70 l 555 111 l 543 111 q 485 18 536 50 q 351 -14 434 -14 q 196 29 260 -14 q 99 153 132 71 q 65 353 65 235 q 99 558 65 473 q 197 688 132 644 q 353 732 262 732 q 486 697 439 732 q 543 589 533 661 l 558 589 l 570 719 l 700 719 m 374 109 q 556 231 556 109 l 556 404 q 373 610 556 610 q 251 543 294 610 q 208 353 208 476 q 250 170 208 232 q 374 109 292 109 z "},"h":{"ha":814,"x_min":114,"x_max":700,"o":"m 461 732 q 637 663 575 732 q 700 468 700 594 l 700 0 l 556 0 l 556 468 q 522 573 556 536 q 427 610 488 610 q 258 404 258 610 l 258 0 l 114 0 l 114 1017 l 258 1017 l 258 589 l 271 589 q 324 697 277 661 q 461 732 371 732 z "},"i":{"ha":814,"x_min":109,"x_max":747,"o":"m 446 833 q 396 846 419 833 q 359 883 373 860 q 346 933 346 906 q 359 983 346 960 q 396 1020 373 1006 q 446 1034 419 1034 q 496 1020 473 1034 q 533 983 519 1006 q 547 933 547 960 q 533 883 547 906 q 496 846 519 860 q 446 833 473 833 m 526 118 l 747 118 l 747 0 l 109 0 l 109 118 l 382 118 l 382 600 l 149 600 l 149 719 l 526 719 l 526 118 z "},"j":{"ha":814,"x_min":115,"x_max":616,"o":"m 515 833 q 465 846 488 833 q 429 883 442 860 q 415 933 415 906 q 429 983 415 960 q 465 1020 442 1006 q 515 1034 488 1034 q 566 1020 543 1034 q 602 983 589 1006 q 616 933 616 960 q 602 883 616 906 q 566 846 589 860 q 515 833 543 833 m 602 64 q 564 -144 602 -64 q 447 -266 526 -224 q 237 -317 367 -307 l 122 -326 l 115 -198 l 251 -186 q 409 -122 360 -176 q 458 42 458 -68 l 458 600 l 179 600 l 179 719 l 602 719 l 602 64 z "},"k":{"ha":814,"x_min":109,"x_max":773,"o":"m 595 0 l 422 296 q 326 286 375 286 l 252 286 l 252 0 l 109 0 l 109 1017 l 252 1017 l 252 415 l 292 415 q 439 445 382 415 q 529 541 496 475 q 578 719 562 606 l 727 719 q 557 355 692 458 l 773 0 l 595 0 z "},"l":{"ha":814,"x_min":60,"x_max":722,"o":"m 722 15 q 616 -7 667 0 q 507 -14 566 -14 q 372 16 423 -14 q 296 109 320 46 q 271 271 271 171 l 271 898 l 60 898 l 60 1017 l 415 1017 l 415 278 q 426 183 415 217 q 469 132 437 149 q 562 115 500 115 q 626 121 591 115 q 705 141 660 127 l 722 15 z "},"m":{"ha":814,"x_min":76,"x_max":738,"o":"m 595 732 q 704 692 670 732 q 738 563 738 652 l 738 0 l 594 0 l 594 549 q 581 606 594 587 q 538 624 567 624 q 468 526 468 624 l 468 0 l 346 0 l 346 563 q 289 624 346 624 q 220 526 220 624 l 220 0 l 76 0 l 76 719 l 203 719 l 213 629 l 224 629 q 258 707 228 682 q 347 732 288 732 q 423 706 393 732 q 463 629 453 680 l 475 629 q 510 703 478 673 q 595 732 541 732 z "},"n":{"ha":814,"x_min":114,"x_max":700,"o":"m 461 732 q 637 663 575 732 q 700 468 700 594 l 700 0 l 556 0 l 556 468 q 522 573 556 536 q 427 610 488 610 q 258 404 258 610 l 258 0 l 114 0 l 114 719 l 244 719 l 256 589 l 271 589 q 324 697 277 661 q 461 732 371 732 z "},"o":{"ha":814,"x_min":92,"x_max":722,"o":"m 407 -14 q 237 30 308 -14 q 129 158 166 74 q 92 359 92 241 q 129 561 92 477 q 237 689 166 645 q 407 732 308 732 q 577 689 506 732 q 685 561 648 645 q 722 359 722 477 q 685 158 722 241 q 577 30 648 74 q 407 -14 506 -14 m 407 115 q 529 179 486 115 q 572 359 572 242 q 529 540 572 477 q 407 604 486 604 q 284 540 328 604 q 241 359 241 477 q 284 179 241 242 q 407 115 328 115 z "},"p":{"ha":814,"x_min":114,"x_max":749,"o":"m 461 732 q 617 688 552 732 q 715 558 682 644 q 749 353 749 473 q 715 153 749 235 q 617 29 682 71 q 463 -14 553 -14 q 329 18 380 -14 q 271 111 278 50 l 258 111 l 258 -312 l 114 -312 l 114 719 l 244 719 l 256 589 l 271 589 q 328 697 281 661 q 461 732 375 732 m 439 109 q 564 170 522 109 q 606 353 606 232 q 563 543 606 476 q 441 610 520 610 q 258 404 258 610 l 258 231 q 439 109 258 109 z "},"q":{"ha":814,"x_min":60,"x_max":694,"o":"m 694 719 l 694 -312 l 551 -312 l 551 111 l 537 111 q 479 18 530 50 q 346 -14 429 -14 q 191 29 255 -14 q 93 153 127 71 q 60 353 60 235 q 93 558 60 473 q 192 688 127 644 q 347 732 256 732 q 480 697 433 732 q 537 589 528 661 l 553 589 l 564 719 l 694 719 m 369 109 q 551 231 551 109 l 551 404 q 368 610 551 610 q 245 543 288 610 q 202 353 202 476 q 244 170 202 232 q 369 109 286 109 z "},"r":{"ha":814,"x_min":54,"x_max":781,"o":"m 570 732 q 691 704 644 732 q 759 617 737 676 q 781 463 781 558 l 639 463 q 615 575 639 541 q 540 610 592 610 q 404 533 450 610 q 358 309 358 456 l 358 119 l 534 119 l 534 0 l 54 0 l 54 119 l 214 119 l 214 600 l 81 600 l 81 719 l 331 719 l 355 534 l 372 534 q 427 683 378 634 q 570 732 476 732 z "},"s":{"ha":814,"x_min":106,"x_max":708,"o":"m 351 -14 q 211 -9 269 -14 q 106 7 153 -4 l 122 137 q 351 115 260 115 q 509 137 460 115 q 559 205 559 158 q 542 252 559 236 q 488 278 526 269 l 323 320 q 212 361 254 338 q 151 419 171 384 q 130 509 130 455 q 169 637 130 588 q 288 709 207 686 q 499 732 369 732 q 689 719 598 732 l 674 594 q 495 604 572 604 q 330 583 381 604 q 279 515 279 562 q 297 471 279 486 q 357 445 315 456 l 490 412 q 614 368 567 393 q 685 303 662 342 q 708 208 708 264 q 671 81 708 130 q 555 9 633 33 q 351 -14 477 -14 z "},"t":{"ha":814,"x_min":41,"x_max":719,"o":"m 719 3 q 530 -14 623 -14 q 353 16 420 -14 q 253 109 285 46 q 221 271 221 171 l 221 600 l 41 600 l 41 719 l 221 719 l 221 936 l 365 936 l 365 719 l 692 719 l 692 600 l 365 600 l 365 278 q 407 154 365 192 q 544 115 449 115 q 611 119 575 115 q 703 129 646 122 l 719 3 z "},"u":{"ha":814,"x_min":106,"x_max":785,"o":"m 785 115 l 785 0 l 555 -7 l 545 138 l 532 138 q 470 26 515 65 q 357 -14 424 -14 q 171 54 237 -14 q 106 244 106 121 l 106 732 l 247 732 l 247 244 q 283 144 247 179 q 384 109 319 109 q 503 161 464 109 q 543 332 543 214 l 543 732 l 686 732 l 686 130 l 785 115 z "},"v":{"ha":814,"x_min":54,"x_max":760,"o":"m 54 719 l 208 719 l 404 109 l 416 109 l 606 719 l 760 719 l 506 -14 l 315 -14 l 54 719 z "},"w":{"ha":814,"x_min":47,"x_max":766,"o":"m 631 719 l 766 719 l 685 -14 l 502 -14 l 404 571 l 396 571 l 298 -14 l 115 -14 l 47 719 l 183 719 l 224 95 l 236 95 l 324 719 l 476 719 l 564 95 l 576 95 l 631 719 z "},"x":{"ha":814,"x_min":72,"x_max":742,"o":"m 742 719 l 481 361 l 742 0 l 579 0 l 404 250 l 235 0 l 72 0 l 329 355 l 72 719 l 235 719 l 407 467 l 579 719 l 742 719 z "},"y":{"ha":814,"x_min":34,"x_max":753,"o":"m 753 719 l 545 64 q 454 -144 505 -66 q 336 -262 404 -222 q 170 -312 267 -302 l 47 -326 l 41 -197 l 153 -183 q 292 -134 237 -173 q 385 -14 347 -94 l 313 -14 l 34 719 l 183 719 l 411 95 l 424 95 l 425 98 l 604 719 l 753 719 z "},"z":{"ha":814,"x_min":109,"x_max":703,"o":"m 281 119 l 703 119 l 703 0 l 109 0 l 109 119 l 527 600 l 109 600 l 109 719 l 689 719 l 689 600 l 281 119 z "},".":{"ha":814,"x_min":307,"x_max":507,"o":"m 407 -14 q 357 0 380 -14 q 320 37 334 14 q 307 87 307 60 q 320 137 307 114 q 357 174 334 160 q 407 187 380 187 q 457 174 434 187 q 494 137 480 160 q 507 87 507 114 q 494 37 507 60 q 457 0 480 14 q 407 -14 434 -14 z "},",":{"ha":814,"x_min":273,"x_max":484,"o":"m 327 172 l 484 172 l 403 -262 l 273 -262 l 327 172 z "},":":{"ha":814,"x_min":307,"x_max":507,"o":"m 407 532 q 357 545 380 532 q 320 582 334 559 q 307 632 307 605 q 320 682 307 659 q 357 719 334 705 q 407 732 380 732 q 457 719 434 732 q 494 682 480 705 q 507 632 507 659 q 494 582 507 605 q 457 545 480 559 q 407 532 434 532 m 407 -14 q 357 0 380 -14 q 320 37 334 14 q 307 87 307 60 q 320 137 307 114 q 357 174 334 160 q 407 187 380 187 q 457 174 434 187 q 494 137 480 160 q 507 87 507 114 q 494 37 507 60 q 457 0 480 14 q 407 -14 434 -14 z "},";":{"ha":814,"x_min":273,"x_max":507,"o":"m 407 532 q 357 545 380 532 q 320 582 334 559 q 307 632 307 605 q 320 682 307 659 q 357 719 334 705 q 407 732 380 732 q 457 719 434 732 q 494 682 480 705 q 507 632 507 659 q 494 582 507 605 q 457 545 480 559 q 407 532 434 532 m 484 172 l 403 -262 l 273 -262 l 327 172 l 484 172 z "},"!":{"ha":814,"x_min":307,"x_max":507,"o":"m 336 970 l 477 970 l 471 309 l 340 309 l 336 970 m 407 -14 q 357 0 380 -14 q 320 37 334 14 q 307 87 307 60 q 320 137 307 114 q 357 174 334 160 q 407 187 380 187 q 457 174 434 187 q 494 137 480 160 q 507 87 507 114 q 494 37 507 60 q 457 0 480 14 q 407 -14 434 -14 z "},"?":{"ha":814,"x_min":134,"x_max":709,"o":"m 339 374 q 450 579 339 509 q 560 747 560 650 q 524 821 560 795 q 423 848 488 848 q 311 814 351 848 q 271 720 271 781 l 134 720 q 169 859 134 801 q 268 946 203 916 q 425 977 333 977 q 578 950 514 977 q 676 874 642 924 q 709 754 709 824 q 559 500 709 600 q 472 365 472 444 l 472 309 l 339 309 l 339 374 m 408 -14 q 358 0 381 -14 q 321 37 335 14 q 308 87 308 60 q 321 137 308 114 q 358 174 335 160 q 408 187 381 187 q 458 174 435 187 q 495 137 481 160 q 509 87 509 114 q 495 37 509 60 q 458 0 481 14 q 408 -14 435 -14 z "},"*":{"ha":814,"x_min":75,"x_max":736,"o":"m 736 514 l 500 446 l 671 270 l 559 175 l 406 387 l 252 175 l 140 270 l 311 446 l 75 514 l 125 652 l 350 552 l 332 798 l 479 798 l 461 552 l 686 652 l 736 514 z "},"#":{"ha":814,"x_min":81,"x_max":760,"o":"m 760 604 l 638 604 l 618 359 l 760 359 l 760 244 l 608 244 l 587 0 l 468 0 l 488 244 l 312 244 l 292 0 l 172 0 l 193 244 l 81 244 l 81 359 l 203 359 l 223 604 l 81 604 l 81 719 l 233 719 l 254 963 l 373 963 l 353 719 l 529 719 l 549 963 l 669 963 l 648 719 l 760 719 l 760 604 m 498 359 l 519 604 l 342 604 l 322 359 l 498 359 z "},"/":{"ha":814,"x_min":57,"x_max":746,"o":"m 609 1031 l 746 1031 l 194 -190 l 57 -190 l 609 1031 z "},"\\":{"ha":814,"x_min":68,"x_max":757,"o":"m 68 1031 l 205 1031 l 757 -190 l 620 -190 l 68 1031 z "},"(":{"ha":814,"x_min":180,"x_max":677,"o":"m 644 -149 q 394 -75 498 -149 q 235 142 290 0 q 180 486 180 285 q 235 824 180 684 q 394 1039 290 965 q 644 1112 498 1112 l 677 1112 l 663 997 l 658 997 q 473 937 549 997 q 356 762 396 877 q 316 486 316 647 q 356 205 316 321 q 473 27 396 88 q 658 -34 549 -34 l 663 -34 l 677 -149 l 644 -149 z "},")":{"ha":814,"x_min":137,"x_max":633,"o":"m 156 -34 q 341 27 264 -34 q 458 205 418 88 q 498 486 498 321 q 458 762 498 647 q 341 937 418 877 q 156 997 264 997 l 151 997 l 137 1112 l 170 1112 q 420 1039 316 1112 q 579 824 524 965 q 633 486 633 684 q 579 142 633 285 q 420 -75 524 0 q 170 -149 316 -149 l 137 -149 l 151 -34 l 156 -34 z "},"{":{"ha":814,"x_min":174,"x_max":675,"o":"m 581 -152 q 445 -117 501 -152 q 358 -14 388 -81 q 328 146 328 53 q 329 238 328 208 l 330 334 q 304 391 330 369 q 242 422 278 412 q 174 431 206 431 l 174 538 q 240 551 203 538 q 303 585 277 563 q 330 636 330 607 l 329 734 q 328 823 328 764 q 394 1035 328 960 q 581 1109 460 1109 q 675 1096 635 1109 l 659 981 q 593 994 618 994 q 504 950 535 994 q 473 823 473 905 q 474 770 473 800 q 475 724 475 741 q 477 625 477 677 q 445 531 477 565 q 354 496 413 498 l 354 473 q 445 438 412 472 q 477 345 477 404 q 477 288 477 319 q 475 241 476 257 q 473 146 473 195 q 504 11 473 58 q 593 -37 535 -37 q 659 -23 618 -37 l 675 -138 q 581 -152 635 -152 z "},"}":{"ha":814,"x_min":138,"x_max":640,"o":"m 233 -152 q 138 -138 179 -152 l 155 -23 q 221 -37 195 -37 q 310 11 279 -37 q 340 146 340 58 q 338 241 340 195 q 337 288 338 257 q 336 345 336 319 q 369 438 336 404 q 460 473 401 472 l 460 496 q 369 531 401 498 q 336 625 336 565 q 337 679 336 649 q 338 724 338 709 q 340 823 340 773 q 310 950 340 905 q 221 994 279 994 q 155 981 195 994 l 138 1096 q 233 1109 179 1109 q 419 1035 353 1109 q 486 823 486 960 q 485 734 486 764 l 484 636 q 511 585 484 607 q 574 551 537 563 q 640 538 611 538 l 640 431 q 572 422 608 431 q 510 391 536 412 q 484 334 484 369 l 485 238 q 486 146 486 208 q 456 -14 486 53 q 369 -117 426 -81 q 233 -152 313 -152 z "},"[":{"ha":814,"x_min":252,"x_max":677,"o":"m 677 979 l 388 979 l 388 -16 l 677 -16 l 677 -136 l 252 -136 l 252 1099 l 677 1099 l 677 979 z "},"]":{"ha":814,"x_min":137,"x_max":562,"o":"m 562 1099 l 562 -136 l 137 -136 l 137 -16 l 418 -16 l 418 979 l 137 979 l 137 1099 l 562 1099 z "},"-":{"ha":814,"x_min":68,"x_max":746,"o":"m 68 544 l 746 544 l 746 418 l 68 418 l 68 544 z "},"_":{"ha":814,"x_min":68,"x_max":746,"o":"m 68 0 l 746 0 l 746 -119 l 68 -119 l 68 0 z "},"“":{"ha":814,"x_min":114,"x_max":665,"o":"m 114 963 l 244 963 l 366 529 l 209 529 l 114 963 m 412 963 l 543 963 l 665 529 l 507 529 l 412 963 z "},"”":{"ha":814,"x_min":149,"x_max":700,"o":"m 543 963 l 700 963 l 578 529 l 448 529 l 543 963 m 244 963 l 401 963 l 279 529 l 149 529 l 244 963 z "},"‘":{"ha":814,"x_min":194,"x_max":446,"o":"m 194 963 l 324 963 l 446 529 l 289 529 l 194 963 z "},"’":{"ha":814,"x_min":300,"x_max":552,"o":"m 395 963 l 552 963 l 430 529 l 300 529 l 395 963 z "},"\"":{"ha":814,"x_min":191,"x_max":623,"o":"m 191 963 l 349 963 l 335 529 l 205 529 l 191 963 m 465 963 l 623 963 l 609 529 l 479 529 l 465 963 z "},"'":{"ha":814,"x_min":327,"x_max":484,"o":"m 327 963 l 484 963 l 471 529 l 340 529 l 327 963 z "},"$":{"ha":814,"x_min":84,"x_max":713,"o":"m 713 248 q 463 -15 713 18 l 463 -227 l 369 -227 l 369 -20 q 84 33 206 -20 l 102 164 q 369 104 245 107 l 369 422 l 313 448 q 161 557 212 494 q 110 712 110 621 q 177 896 110 828 q 369 975 245 964 l 369 1166 l 463 1166 l 463 975 q 631 905 572 964 q 690 747 690 846 l 557 747 q 533 813 557 787 q 463 848 509 839 l 463 539 l 495 524 q 660 407 606 471 q 713 248 713 343 m 369 583 l 369 848 q 284 805 314 838 q 255 719 255 772 q 279 644 255 673 q 354 590 303 614 l 369 583 m 463 113 q 542 159 516 126 q 568 245 568 192 q 480 372 568 332 l 463 380 l 463 113 z "},"+":{"ha":814,"x_min":68,"x_max":746,"o":"m 746 545 l 746 418 l 472 418 l 472 129 l 342 129 l 342 418 l 68 418 l 68 545 l 342 545 l 342 833 l 472 833 l 472 545 l 746 545 z "},"−":{"ha":814,"x_min":68,"x_max":746,"o":"m 68 544 l 746 544 l 746 418 l 68 418 l 68 544 z "},"×":{"ha":814,"x_min":82,"x_max":732,"o":"m 732 722 l 490 466 l 732 210 l 645 127 l 407 379 l 169 127 l 82 210 l 324 466 l 82 722 l 169 806 l 407 553 l 645 806 l 732 722 z "},"÷":{"ha":814,"x_min":68,"x_max":746,"o":"m 407 640 q 359 653 381 640 q 324 688 337 666 q 311 736 311 710 q 324 783 311 762 q 359 818 337 805 q 407 831 381 831 q 455 818 433 831 q 490 783 477 805 q 503 736 503 762 q 490 688 503 710 q 455 653 477 666 q 407 640 433 640 m 746 544 l 746 418 l 68 418 l 68 544 l 746 544 m 407 102 q 359 115 381 102 q 324 150 337 128 q 311 197 311 172 q 324 245 311 223 q 359 280 337 267 q 407 293 381 293 q 455 280 433 293 q 490 245 477 267 q 503 197 503 223 q 490 150 503 172 q 455 115 477 128 q 407 102 433 102 z "},"=":{"ha":814,"x_min":68,"x_max":746,"o":"m 68 713 l 746 713 l 746 587 l 68 587 l 68 713 m 68 374 l 746 374 l 746 248 l 68 248 l 68 374 z "},">":{"ha":814,"x_min":99,"x_max":749,"o":"m 99 294 l 574 475 l 574 487 l 99 667 l 99 817 l 749 549 l 749 412 l 99 145 l 99 294 z "},"<":{"ha":814,"x_min":65,"x_max":715,"o":"m 65 412 l 65 549 l 715 817 l 715 667 l 213 487 l 213 475 l 715 294 l 715 145 l 65 412 z "},"~":{"ha":814,"x_min":68,"x_max":746,"o":"m 68 336 q 112 510 68 452 q 244 567 155 567 q 310 562 277 567 q 393 547 343 557 q 475 531 442 536 q 541 526 508 526 q 609 637 609 526 l 609 658 l 746 658 l 746 624 q 709 451 746 508 q 597 393 672 393 q 528 398 562 393 q 442 414 494 404 q 356 429 391 424 q 288 434 322 434 q 206 323 206 434 l 206 302 l 68 302 l 68 336 z "},"^":{"ha":814,"x_min":138,"x_max":674,"o":"m 315 963 l 498 963 l 674 556 l 525 556 l 412 854 l 400 854 l 288 556 l 138 556 l 315 963 z "},"%":{"ha":814,"x_min":37,"x_max":791,"o":"m 250 538 q 138 566 186 538 q 63 642 90 593 q 37 757 37 692 q 63 872 37 823 q 138 949 90 922 q 250 977 186 977 q 361 950 313 977 q 435 873 409 923 q 461 757 461 824 q 435 642 461 692 q 360 566 408 593 q 250 538 313 538 m 250 652 q 312 681 288 652 q 335 757 335 710 q 312 835 335 806 q 250 864 288 864 q 186 835 210 864 q 163 757 163 806 q 186 681 163 710 q 250 652 210 652 m 64 293 l 694 750 l 757 669 l 126 208 l 64 293 m 579 -14 q 467 14 515 -14 q 393 90 419 41 q 366 205 366 140 q 393 320 366 271 q 467 397 419 370 q 579 425 515 425 q 690 397 642 425 q 765 320 739 370 q 791 205 791 271 q 764 90 791 140 q 690 14 738 41 q 579 -14 642 -14 m 579 100 q 641 129 618 100 q 665 205 665 158 q 641 282 665 253 q 579 311 618 311 q 516 282 540 311 q 492 205 492 253 q 516 129 492 158 q 579 100 540 100 z "},"@":{"ha":814,"x_min":73,"x_max":727,"o":"m 448 977 q 727 640 727 977 l 727 556 l 727 444 l 727 202 l 610 202 l 610 346 l 602 346 q 552 230 590 271 q 458 189 515 189 q 318 263 368 189 q 269 475 269 338 q 318 698 269 623 q 460 773 367 773 q 550 732 512 773 q 602 616 587 690 l 610 616 l 610 636 q 569 805 610 749 q 448 861 528 861 q 307 818 366 861 q 218 690 248 774 q 187 488 187 606 q 254 203 187 298 q 457 109 321 109 q 625 149 568 109 l 639 27 q 457 -14 576 -14 q 170 113 267 -14 q 73 488 73 239 q 117 752 73 643 q 245 919 161 862 q 448 977 330 977 m 498 317 q 581 358 551 317 q 610 475 610 399 q 584 603 610 562 q 507 644 558 644 q 391 475 391 644 q 419 358 391 399 q 498 317 447 317 z "},"&":{"ha":814,"x_min":38,"x_max":830,"o":"m 652 0 l 583 79 q 313 -14 477 -14 q 169 17 231 -14 q 72 103 106 47 q 38 233 38 159 q 89 393 38 328 q 234 487 140 458 q 171 602 191 549 q 151 707 151 654 q 223 906 151 836 q 427 977 295 977 q 607 920 543 977 q 671 761 671 863 l 526 761 q 501 828 526 804 q 430 852 476 852 q 334 813 368 852 q 300 705 300 775 q 324 612 300 659 q 397 509 349 566 l 577 297 q 610 519 610 391 l 741 519 q 670 189 741 319 l 830 0 l 652 0 m 330 111 q 500 174 431 111 l 316 384 l 303 399 q 208 334 241 375 q 175 240 175 293 q 194 172 175 201 q 248 127 213 143 q 330 111 283 111 z "},"|":{"ha":814,"x_min":339,"x_max":475,"o":"m 339 1194 l 475 1194 l 475 -190 l 339 -190 l 339 1194 z "},"`":{"ha":814,"x_min":233,"x_max":519,"o":"m 233 1017 l 384 1017 l 519 760 l 382 760 l 233 1017 z "}}}
